<svg xmlns="http://www.w3.org/2000/svg" xmlns:xlink="http://www.w3.org/1999/xlink" width="500" zoomAndPan="magnify" viewBox="0 0 375 374.999991" height="500" preserveAspectRatio="xMidYMid meet" version="1.0"><defs><clipPath id="4d2c71d17d"><path d="M 172 2.71875 L 203 2.71875 L 203 98 L 172 98 Z M 172 2.71875 " clip-rule="nonzero"/></clipPath><clipPath id="6ca32de95f"><path d="M 2.71875 172 L 98 172 L 98 203 L 2.71875 203 Z M 2.71875 172 " clip-rule="nonzero"/></clipPath><clipPath id="619a3a5b16"><path d="M 172 277 L 203 277 L 203 372.46875 L 172 372.46875 Z M 172 277 " clip-rule="nonzero"/></clipPath><clipPath id="69fe356904"><path d="M 277 172 L 372.46875 172 L 372.46875 203 L 277 203 Z M 277 172 " clip-rule="nonzero"/></clipPath></defs><path fill="#000000" d="M 187.5 109.003906 C 144.214844 109.003906 109.003906 144.214844 109.003906 187.5 C 109.003906 230.78125 144.214844 265.992188 187.5 265.992188 C 230.78125 265.992188 265.992188 230.78125 265.992188 187.5 C 265.992188 144.214844 230.78125 109.003906 187.5 109.003906 Z M 187.5 109.003906 " fill-opacity="1" fill-rule="nonzero"/><g clip-path="url(#4d2c71d17d)"><path fill="#000000" d="M 187.5 97.917969 C 195.601562 97.917969 202.191406 91.328125 202.191406 83.226562 L 202.191406 17.410156 C 202.191406 9.308594 195.601562 2.71875 187.5 2.71875 C 179.394531 2.71875 172.804688 9.308594 172.804688 17.410156 L 172.804688 83.226562 C 172.804688 91.328125 179.394531 97.917969 187.5 97.917969 Z M 187.5 97.917969 " fill-opacity="1" fill-rule="nonzero"/></g><path fill="#000000" d="M 103.375 124.15625 C 106.152344 126.929688 109.839844 128.460938 113.765625 128.460938 C 117.691406 128.460938 121.378906 126.929688 124.15625 124.15625 C 126.929688 121.382812 128.460938 117.691406 128.460938 113.765625 C 128.460938 109.839844 126.929688 106.152344 124.15625 103.375 L 77.617188 56.839844 C 74.847656 54.066406 71.15625 52.539062 67.226562 52.539062 C 63.300781 52.539062 59.609375 54.066406 56.839844 56.839844 C 54.066406 59.609375 52.539062 63.300781 52.539062 67.230469 C 52.539062 71.15625 54.066406 74.847656 56.839844 77.617188 Z M 103.375 124.15625 " fill-opacity="1" fill-rule="nonzero"/><g clip-path="url(#6ca32de95f)"><path fill="#000000" d="M 97.917969 187.5 C 97.917969 179.394531 91.328125 172.804688 83.226562 172.804688 L 17.410156 172.804688 C 9.308594 172.804688 2.71875 179.394531 2.71875 187.5 C 2.71875 195.601562 9.308594 202.191406 17.410156 202.191406 L 83.226562 202.191406 C 91.328125 202.191406 97.917969 195.601562 97.917969 187.5 Z M 97.917969 187.5 " fill-opacity="1" fill-rule="nonzero"/></g><path fill="#000000" d="M 113.765625 246.542969 C 109.835938 246.542969 106.148438 248.070312 103.375 250.839844 L 56.839844 297.378906 C 54.066406 300.148438 52.539062 303.839844 52.539062 307.769531 C 52.539062 311.695312 54.066406 315.386719 56.839844 318.160156 C 59.613281 320.933594 63.304688 322.460938 67.226562 322.460938 C 71.152344 322.460938 74.84375 320.933594 77.617188 318.160156 L 124.15625 271.621094 C 126.929688 268.84375 128.460938 265.15625 128.460938 261.230469 C 128.460938 257.304688 126.929688 253.617188 124.15625 250.839844 C 121.382812 248.070312 117.691406 246.542969 113.765625 246.542969 Z M 113.765625 246.542969 " fill-opacity="1" fill-rule="nonzero"/><g clip-path="url(#619a3a5b16)"><path fill="#000000" d="M 187.5 277.078125 C 179.394531 277.078125 172.804688 283.667969 172.804688 291.773438 L 172.804688 357.585938 C 172.804688 365.6875 179.394531 372.28125 187.5 372.28125 C 195.601562 372.28125 202.191406 365.6875 202.191406 357.585938 L 202.191406 291.773438 C 202.191406 283.667969 195.601562 277.078125 187.5 277.078125 Z M 187.5 277.078125 " fill-opacity="1" fill-rule="nonzero"/></g><path fill="#000000" d="M 271.621094 250.839844 C 268.84375 248.066406 265.15625 246.539062 261.230469 246.539062 C 257.304688 246.539062 253.617188 248.066406 250.839844 250.839844 C 245.113281 256.570312 245.113281 265.890625 250.839844 271.621094 L 297.378906 318.160156 C 300.152344 320.933594 303.84375 322.460938 307.769531 322.460938 C 311.691406 322.460938 315.382812 320.933594 318.15625 318.160156 C 320.933594 315.382812 322.460938 311.691406 322.460938 307.769531 C 322.460938 303.84375 320.933594 300.152344 318.15625 297.378906 Z M 271.621094 250.839844 " fill-opacity="1" fill-rule="nonzero"/><g clip-path="url(#69fe356904)"><path fill="#000000" d="M 357.585938 172.804688 L 291.773438 172.804688 C 283.667969 172.804688 277.078125 179.394531 277.078125 187.5 C 277.078125 195.601562 283.667969 202.191406 291.773438 202.191406 L 357.585938 202.191406 C 365.6875 202.191406 372.28125 195.601562 372.28125 187.5 C 372.28125 179.394531 365.6875 172.804688 357.585938 172.804688 Z M 357.585938 172.804688 " fill-opacity="1" fill-rule="nonzero"/></g><path fill="#000000" d="M 261.230469 128.460938 C 265.15625 128.460938 268.847656 126.929688 271.621094 124.15625 L 318.15625 77.617188 C 320.933594 74.84375 322.460938 71.152344 322.460938 67.230469 C 322.460938 63.304688 320.933594 59.613281 318.160156 56.839844 C 315.382812 54.0625 311.695312 52.535156 307.769531 52.535156 C 303.84375 52.535156 300.152344 54.0625 297.378906 56.839844 L 250.839844 103.375 C 248.070312 106.148438 246.542969 109.835938 246.542969 113.765625 C 246.542969 117.695312 248.070312 121.382812 250.839844 124.15625 C 253.617188 126.929688 257.304688 128.460938 261.230469 128.460938 Z M 261.230469 128.460938 " fill-opacity="1" fill-rule="nonzero"/></svg>